<svg width="38" height="38" viewBox="0 0 38 38" fill="none" xmlns="http://www.w3.org/2000/svg">
<rect x="38" y="37.7145" width="38.0001" height="37.7145" rx="18.8573" transform="rotate(-180 38 37.7145)" fill="black"/>
<path d="M19.6723 13.4833L24.5352 18.3461C24.6088 18.4198 24.6612 18.4996 24.6921 18.5856C24.723 18.6715 24.7383 18.7636 24.7378 18.8619C24.7378 18.9601 24.7223 19.0522 24.6914 19.1382C24.6604 19.2241 24.6084 19.304 24.5352 19.3776L19.6723 24.2405C19.5373 24.3755 19.3683 24.446 19.1654 24.4519C18.9626 24.4578 18.7877 24.3873 18.6408 24.2405C18.4935 24.1054 18.4166 23.9364 18.4102 23.7336C18.4038 23.5307 18.4746 23.3558 18.6224 23.209L22.2327 19.5987H13.999C13.7903 19.5987 13.6152 19.5279 13.4737 19.3865C13.3322 19.245 13.2617 19.0702 13.2622 18.8619C13.2622 18.6531 13.3327 18.478 13.4737 18.3366C13.6147 18.1951 13.7898 18.1246 13.999 18.1251H22.2327L18.6224 14.5148C18.4873 14.3797 18.4166 14.2078 18.4102 13.9991C18.4038 13.7903 18.4746 13.6184 18.6224 13.4833C18.7575 13.3359 18.9294 13.2623 19.1382 13.2623C19.3469 13.2623 19.525 13.3359 19.6723 13.4833Z" fill="white"/>
</svg>
